<mxfile host="app.diagrams.net" modified="2023-03-19T15:46:40.542Z" agent="5.0 (Windows NT 10.0; Win64; x64) AppleWebKit/537.36 (KHTML, like Gecko) Chrome/111.0.0.0 Safari/537.36" etag="cfKHhpUBJP0-EAgTkc-X" version="21.0.6" type="github">
  <diagram id="C5RBs43oDa-KdzZeNtuy" name="Page-1">
    <mxGraphModel dx="1154" dy="527" grid="1" gridSize="10" guides="1" tooltips="1" connect="1" arrows="1" fold="1" page="1" pageScale="1" pageWidth="827" pageHeight="1169" math="0" shadow="0">
      <root>
        <mxCell id="WIyWlLk6GJQsqaUBKTNV-0" />
        <mxCell id="WIyWlLk6GJQsqaUBKTNV-1" parent="WIyWlLk6GJQsqaUBKTNV-0" />
        <mxCell id="a3HnjsQAZOwYdQYxMBOG-32" value="" style="rounded=1;whiteSpace=wrap;html=1;" vertex="1" parent="WIyWlLk6GJQsqaUBKTNV-1">
          <mxGeometry x="83" y="410" width="660" height="410" as="geometry" />
        </mxCell>
        <mxCell id="a3HnjsQAZOwYdQYxMBOG-26" value="" style="edgeStyle=orthogonalEdgeStyle;rounded=0;orthogonalLoop=1;jettySize=auto;html=1;" edge="1" parent="WIyWlLk6GJQsqaUBKTNV-1" source="WIyWlLk6GJQsqaUBKTNV-10" target="a3HnjsQAZOwYdQYxMBOG-25">
          <mxGeometry relative="1" as="geometry" />
        </mxCell>
        <mxCell id="a3HnjsQAZOwYdQYxMBOG-34" style="edgeStyle=orthogonalEdgeStyle;rounded=0;orthogonalLoop=1;jettySize=auto;html=1;" edge="1" parent="WIyWlLk6GJQsqaUBKTNV-1" source="WIyWlLk6GJQsqaUBKTNV-10" target="a3HnjsQAZOwYdQYxMBOG-12">
          <mxGeometry relative="1" as="geometry" />
        </mxCell>
        <mxCell id="WIyWlLk6GJQsqaUBKTNV-10" value="Jenkins&lt;br&gt;server" style="rhombus;whiteSpace=wrap;html=1;shadow=0;fontFamily=Helvetica;fontSize=12;align=center;strokeWidth=1;spacing=6;spacingTop=-4;" parent="WIyWlLk6GJQsqaUBKTNV-1" vertex="1">
          <mxGeometry x="270" y="137.5" width="100" height="80" as="geometry" />
        </mxCell>
        <mxCell id="a3HnjsQAZOwYdQYxMBOG-0" value="dev machine" style="outlineConnect=0;dashed=0;verticalLabelPosition=bottom;verticalAlign=top;align=center;html=1;shape=mxgraph.aws3.ec2;fillColor=#F58534;gradientColor=none;" vertex="1" parent="WIyWlLk6GJQsqaUBKTNV-1">
          <mxGeometry x="23.5" y="131" width="76.5" height="93" as="geometry" />
        </mxCell>
        <mxCell id="a3HnjsQAZOwYdQYxMBOG-35" style="edgeStyle=orthogonalEdgeStyle;rounded=0;orthogonalLoop=1;jettySize=auto;html=1;" edge="1" parent="WIyWlLk6GJQsqaUBKTNV-1" source="a3HnjsQAZOwYdQYxMBOG-12" target="a3HnjsQAZOwYdQYxMBOG-15">
          <mxGeometry relative="1" as="geometry" />
        </mxCell>
        <mxCell id="a3HnjsQAZOwYdQYxMBOG-12" value="ECR" style="sketch=0;points=[[0,0,0],[0.25,0,0],[0.5,0,0],[0.75,0,0],[1,0,0],[0,1,0],[0.25,1,0],[0.5,1,0],[0.75,1,0],[1,1,0],[0,0.25,0],[0,0.5,0],[0,0.75,0],[1,0.25,0],[1,0.5,0],[1,0.75,0]];outlineConnect=0;fontColor=#232F3E;gradientColor=#F78E04;gradientDirection=north;fillColor=#D05C17;strokeColor=#ffffff;dashed=0;verticalLabelPosition=bottom;verticalAlign=top;align=center;html=1;fontSize=12;fontStyle=0;aspect=fixed;shape=mxgraph.aws4.resourceIcon;resIcon=mxgraph.aws4.ecr;" vertex="1" parent="WIyWlLk6GJQsqaUBKTNV-1">
          <mxGeometry x="281" y="290" width="78" height="78" as="geometry" />
        </mxCell>
        <mxCell id="a3HnjsQAZOwYdQYxMBOG-37" style="edgeStyle=orthogonalEdgeStyle;rounded=0;orthogonalLoop=1;jettySize=auto;html=1;" edge="1" parent="WIyWlLk6GJQsqaUBKTNV-1" source="a3HnjsQAZOwYdQYxMBOG-15" target="a3HnjsQAZOwYdQYxMBOG-36">
          <mxGeometry relative="1" as="geometry" />
        </mxCell>
        <mxCell id="a3HnjsQAZOwYdQYxMBOG-41" style="edgeStyle=orthogonalEdgeStyle;rounded=0;orthogonalLoop=1;jettySize=auto;html=1;" edge="1" parent="WIyWlLk6GJQsqaUBKTNV-1" source="a3HnjsQAZOwYdQYxMBOG-15" target="a3HnjsQAZOwYdQYxMBOG-38">
          <mxGeometry relative="1" as="geometry" />
        </mxCell>
        <mxCell id="a3HnjsQAZOwYdQYxMBOG-44" style="edgeStyle=orthogonalEdgeStyle;rounded=0;orthogonalLoop=1;jettySize=auto;html=1;" edge="1" parent="WIyWlLk6GJQsqaUBKTNV-1" source="a3HnjsQAZOwYdQYxMBOG-15" target="a3HnjsQAZOwYdQYxMBOG-43">
          <mxGeometry relative="1" as="geometry" />
        </mxCell>
        <mxCell id="a3HnjsQAZOwYdQYxMBOG-15" value="ArgoCD" style="rhombus;whiteSpace=wrap;html=1;shadow=0;fontFamily=Helvetica;fontSize=12;align=center;strokeWidth=1;spacing=6;spacingTop=-4;" vertex="1" parent="WIyWlLk6GJQsqaUBKTNV-1">
          <mxGeometry x="402.75" y="450" width="100" height="80" as="geometry" />
        </mxCell>
        <mxCell id="a3HnjsQAZOwYdQYxMBOG-22" value="" style="edgeStyle=orthogonalEdgeStyle;rounded=0;orthogonalLoop=1;jettySize=auto;html=1;" edge="1" parent="WIyWlLk6GJQsqaUBKTNV-1" source="a3HnjsQAZOwYdQYxMBOG-21" target="WIyWlLk6GJQsqaUBKTNV-10">
          <mxGeometry relative="1" as="geometry" />
        </mxCell>
        <mxCell id="a3HnjsQAZOwYdQYxMBOG-24" value="" style="edgeStyle=orthogonalEdgeStyle;rounded=0;orthogonalLoop=1;jettySize=auto;html=1;" edge="1" parent="WIyWlLk6GJQsqaUBKTNV-1" source="a3HnjsQAZOwYdQYxMBOG-21" target="a3HnjsQAZOwYdQYxMBOG-0">
          <mxGeometry relative="1" as="geometry" />
        </mxCell>
        <mxCell id="a3HnjsQAZOwYdQYxMBOG-21" value="Application" style="shape=image;html=1;verticalAlign=top;verticalLabelPosition=bottom;labelBackgroundColor=#ffffff;imageAspect=0;aspect=fixed;image=https://cdn4.iconfinder.com/data/icons/socialcones/508/Github-128.png" vertex="1" parent="WIyWlLk6GJQsqaUBKTNV-1">
          <mxGeometry x="146" y="138" width="77.5" height="77.5" as="geometry" />
        </mxCell>
        <mxCell id="a3HnjsQAZOwYdQYxMBOG-27" value="" style="edgeStyle=orthogonalEdgeStyle;rounded=0;orthogonalLoop=1;jettySize=auto;html=1;" edge="1" parent="WIyWlLk6GJQsqaUBKTNV-1" source="a3HnjsQAZOwYdQYxMBOG-25" target="a3HnjsQAZOwYdQYxMBOG-15">
          <mxGeometry relative="1" as="geometry" />
        </mxCell>
        <mxCell id="a3HnjsQAZOwYdQYxMBOG-25" value="GitOps" style="shape=image;html=1;verticalAlign=top;verticalLabelPosition=bottom;labelBackgroundColor=#ffffff;imageAspect=0;aspect=fixed;image=https://cdn4.iconfinder.com/data/icons/socialcones/508/Github-128.png" vertex="1" parent="WIyWlLk6GJQsqaUBKTNV-1">
          <mxGeometry x="414" y="139" width="77.5" height="77.5" as="geometry" />
        </mxCell>
        <mxCell id="a3HnjsQAZOwYdQYxMBOG-33" value="Amazon EKS" style="sketch=0;outlineConnect=0;fontColor=#232F3E;gradientColor=none;strokeColor=#ffffff;fillColor=#232F3E;dashed=0;verticalLabelPosition=middle;verticalAlign=bottom;align=center;html=1;whiteSpace=wrap;fontSize=10;fontStyle=1;spacing=3;shape=mxgraph.aws4.productIcon;prIcon=mxgraph.aws4.eks;" vertex="1" parent="WIyWlLk6GJQsqaUBKTNV-1">
          <mxGeometry x="110" y="430" width="70" height="90" as="geometry" />
        </mxCell>
        <mxCell id="a3HnjsQAZOwYdQYxMBOG-36" value="" style="shape=image;verticalLabelPosition=bottom;verticalAlign=top;imageAspect=0;image=data:image/jpeg,/9j/4AAQSkZJRgABAQEAYABgAAD/4QAiRXhpZgAATU0AKgAAAAgAAQESAAMAAAABAAEAAAAAAAD/2wBDAAIBAQIBAQICAgICAgICAwUDAwMDAwYEBAMFBwYHBwcGBwcICQsJCAgKCAcHCg0KCgsMDAwMBwkODw0MDgsMDAz/2wBDAQICAgMDAwYDAwYMCAcIDAwMDAwMDAwMDAwMDAwMDAwMDAwMDAwMDAwMDAwMDAwMDAwMDAwMDAwMDAwMDAwMDAz/wAARCAECAbsDASIAAhEBAxEB/8QAHwAAAQUBAQEBAQEAAAAAAAAAAAECAwQFBgcICQoL/8QAtRAAAgEDAwIEAwUFBAQAAAF9AQIDAAQRBRIhMUEGE1FhByJxFDKBkaEII0KxwRVS0fAkM2JyggkKFhcYGRolJicoKSo0NTY3ODk6Q0RFRkdISUpTVFVWV1hZWmNkZWZnaGlqc3R1dnd4eXqDhIWGh4iJipKTlJWWl5iZmqKjpKWmp6ipqrKztLW2t7i5usLDxMXGx8jJytLT1NXW19jZ2uHi4+Tl5ufo6erx8vP09fb3+Pn6/8QAHwEAAwEBAQEBAQEBAQAAAAAAAAECAwQFBgcICQoL/8QAtREAAgECBAQDBAcFBAQAAQJ3AAECAxEEBSExBhJBUQdhcRMiMoEIFEKRobHBCSMzUvAVYnLRChYkNOEl8RcYGRomJygpKjU2Nzg5OkNERUZHSElKU1RVVldYWVpjZGVmZ2hpanN0dXZ3eHl6goOEhYaHiImKkpOUlZaXmJmaoqOkpaanqKmqsrO0tba3uLm6wsPExcbHyMnK0tPU1dbX2Nna4uPk5ebn6Onq8vP09fb3+Pn6/9oADAMBAAIRAxEAPwD9/KKKKACiiigAooooAKKKKACiiigAooooAKKKKACiiigAooooAKKKKACiiigAooooAGGRTdlOooAbsoVcGnUUAFFFFACEZYc/h601g5bgqBT6KHqBGInHcfSnICBTqKAskFFFFABRRRQAUUUUAFFFFABRRRQAUUUUAFFFFABRRRQAUUUUAFFFFABRRRQAUU2NtwpXbapPpQAtFRi43FgB8y9aa1wy/wAP5Gk3ZXAmo3Vzniv4m6P4Lj3ahfQQsV3hC/zsPZeprkD+1d4ZWcqRfbO0nk/Kf1z+lfIZtx/w9llX2GPxcKcuzkrnfQyvF1o89Km2u6TPUs0VzfhH4naN42Df2fewTSLy0YbEi/VSAR+VdAk+7bxjdX0OX5phMfSVfB1FOD6p3RyVKU6cuWorMkooorvMwooooAKKKKACiiigAooooAKKKKACiiigAooooAKM0Ux/vUAP3UbqjooAkooHSgnAoAKRnVB8xA+pprSZH4V55+0t8Q774d/C26vNNbybyeVbWOXqYt2SWAPGQAcZ71rh6Mq1SNKG8tjDFYiFClKtPaKuz0QyKvVlH407dX57j42+MfD+qi8tvE2tGZSWIlumlR/qrkr+le1fA79vyx1W9t9L8ZLDp11IQseoxArbuc4HmDnyz75K/Svdx3DOLoQ542kvI+awPF+DxE+R3jfufT1FV7XU472FZYWWSFwCrq2QQemMetT7q+dejsz6qMlJXQtFHegnAoKCimh6dmgAooooAKKKKACiiigAooooAKKKKACiiigAooooAKKKKAGQHKfjSztshY+gzTUHlxtj61W1DVobW2Z5XSKHbkyMwUAeuTx+P/1szFPRMlyjHWbsj4g/bU/4KY638OviHqHg/wAF2tgs2kOsF5qd1H54MpUM6RIDj5QwBZifmDDHHOt+xH+3Z40+M8Piu38R2+l3MPh/ThdR3sCNCzSMSEidMlSG2t8w2429K8P+Pn/BP/4ial4+8SeIvDlrp/ivR9Y1O6v7efTL6OSVkklaQZRtvK7v4S2So+legfsifC/VvhR+zl4ovNa0nUdD1LXteisjBe27W8vlRRh1+VgD1aTnoc8V4/H2aRynh3F4+CtKEJW8nbRn9CVst4S/1cowy506laTgm7+8m7X9Ouh2mta9eeItVmvby4ee6nbLMTwB/dA7DHFUxy+dzBh0PoaQoR3p27C81/j1mWOxWKrOviJOTk27u99ep6NDDxpU+SGi6LaxPpeoz6HqEN3ayG3uLVg0TpwV5zj1we46Gvq74XeNo/HvhK01BMCR/klTOfLdeGH+exFfJBcsnyrkkcD1r279kO8kks9ZhbdtWWKVOu3JU5x+S1/Sv0ZuLMXh8/eUyd6VRPRvZrr/AMMfEcc5dTnhVikvei7HuNFR+fxkbcfWhZmYfdr/AEKWquj8j62JKDQaaX3IfyoAQTZz8vAOM56j1pQ/HSvl3/gsv+1V4u/Yd/4Jt/Ez4peBZNMXxV4Ut7OeyOoWv2m2JkvYIXDx7lyDHIwHIweea77/AIJ4fG3XP2lv2Dfg78QvEzWreIPG3hDS9b1E2sXlQm4uLaOWTYuTtXcx4zQB7NRRmkLcfjQAtFFJu5oAWignArxD9nH/AIKFfDP9qv4+/FL4Z+DdS1C88WfBy+TTvE9vPYS28dpM0k0ahHYBZAWgk5UnoPWgD28nio1n3Hp3xmqvijUptG8Nahd28fnT2ttJLHHgneyqSBgc8kY45r5R/wCCMv7cnxQ/4KB/spah44+LHw9/4Vn4ms/EtxpEekiwu7PzLWO3tpUn2XP7w72mcZX5fkHo1AH15RQTgU1ZNzf5zQA6mP8Aep9Mf71ACUUUUASDpQx+WgdKRhuWgBmMg1wH7SHg+bxn8INWt4E8y4gjF1CmPmZkO4ge5XI/GvQfL96jltx5Lbju479q0w9SVKrGoujOXF0PbUZUns00fmrrRVg3LcjI49f8/lXHa0+FYsxHzckcYFe7/tZfByT4W+N5J7eNhpGrO89qVHyxMTl4yfYnI/2T7HHg2vfKrK3yluRn/PvX7dluKp4mgq0NnufguYYWeFrujU3Wx337N/7aevfs8Xi6ffLJrXhfdn7Hv2yWmTy0BPA6n5CQpP8AdJZj96/Cb41+HfjX4Uh1jw5qUN/aycOAdktu2M7JEPzI3swGRgjIINfk7rgyNvVR0zVPw18UPFXwi8SrrXg/Wp9F1iL+NRugux/zznjPyyIenPzDJKlW+avHzrhGji/3mH0n+D9f8z6HI+LquE/d19YfivQ/ZYXOPvf/AFjUjTYTOK/N/wCHv/BeiHw7brp/j74f30OqWo2SXOhXKNDN/tCKYqYx3x5jdRz6cv8AtAf8HI+m+GbOS08FfDm5u9TdSYpNbv0SKE46tFCGLfTzFz6jrXwb4VzOFTl9k/vX+Z+i4fiTA14XhPX0f+R+opbjlfp70izqJNuGyMEjHSv50/jj/wAFmP2jvjheTSXHxAu/C9iwONO8MW402BB7SAtcE44O6Yg+gr07wf8A8FEPHn7CHxR+Gur6b+0FdfHjwz4h0221HxXoc00l4NLLsPOtN80kjx3CqWKMpjbcg82PaQD1VOEcXSS5rc71srv8dkdkMypS1SP3mBzRXKfCj4x+G/jb4E03xN4V1iy1zQtWjElreWsoeN89VP8AdcHgocMpBBAIIrqQ+a+XknGTjJWaPRjJNXQ6iiigYUUUUAFFFFABRRRQAUUUUAFFFFABRRRQBG3zQSfxcHg9+K/Lb/gpt+1VqnxT+K+reC9PvJofCvh24+yXFsh2rqFyn+saTHLKjHaEOVyu7Gcbf1JkTbbuF/unGa/GX9tn4eah8L/2ovGVnfq0aalqUuqWzPwJ4blzKpUnrgsynGeUPSv0XwzweFr5k/rGrS92/c/E/HHMMbhsnprCNqMpWk128/mcD4K8c658N7nzvD+t6xoUjMGJ0+9kt956ZbDDd9GyPXjivs79hz9o3xH+1JovijwR4q1K81rXtLhXXdIupUVW2IVikgYooX/lomBySZG5IGK+V/2ff2f9d/aK8cf2RpEJjtrXEmp38o22+nQ55dierEA7V6tg44DEezeM/j1ovwA8PTeDfgvcy2dv5wk1TxS5WW+1qRegSTbt8tT/ABABT/CApLN9B4s5TlOc5XXySpTUp1YtNpL3V3b7n474c8R5jkOJhnmKqyjRg/hu3zvsl+p7xe2dxp115NxBLBKo+dJFKsn4dahk3eXuAyM4PI/z+deV+Cf+Cj+qXkMNj8RPDun+K7WFMG/sh9l1JOfvDkRvxxgbB6mvevArfDf4qWNxq3h/xsW0/S7Z73U7WaMm/s4lUszFNoYAAcEoc9ieh/ye41+ifxLl2LvlMlWpyejbs18v8j+9eD/HrhvO6SftOSdtYvR/L/gFXwN8PrrxpcyNujs9NtQZLq9l+WG3Qckknjpzjp36ZI+U/jf/AMFwz8JPjJZ6R8IfDul6p4H0K4ZNSudQLRzeJGxtZ4m5aGMYykjKxbqV243eJ/t9f8FPNQ/aEsrjwL8P1uPDfwpVthG0x3/iFh1kuWycRN8pEQAOPvnOET5JB2D/AHeg7e/HTn3/AJV/cfgL9G3L+FMEsbmkVUxc1q7X5brZdvU/AfFTxwxGYV3hMpk40ovddWj+kT9l/wDaQ8O/tYfBbQ/GvhiaQ6fq0ZEkEoCzWU68SwSqCQrocg4JzwRkEGvSNvlpx82BwPWvzk/4Ny57gfAL4hW7STNbx+JFaJG+7GWtYd2B2JwCf/rV+gPxG8Vf8IN8Pde1var/ANj6dcX21s4byo2fBxz/AA9q+pzXCxw2LqUYPRM+54ZzSWY5ZRxc1ZyWvqtL/M+E/wDgor/wcB+F/wBjb9oW3+DPw7+HHi74+fGEwCa+8P8Ahclk0jcFZEnkSOV/MKsrlEjO1WUsVLAV5f8AAr/g5qk0/wCPvhv4eftIfs7/ABC/Z1vvF94llpmr6tI8uliRyApleaC3ZY8sql0VwpYbgoBI+Uf+DZ//AIKYfAX4JeDPjp8Rvjn8SvCfhX4tfE7xrLeXE+qhvtlzZGJJvkcISIjcTzjbkAlBxwK95/4L1f8ABR79jn9vD/gmL8QfCel/FzwP4o8aadBHrXha3haR7uPUIJFK+SWj+VnjMsR5GVlYZ9PPPePqH/g5Pn+0f8ET/jltxt+waecg5/5idpj61vfsE/FTWvgj/wAEFvhT4u8O+Fb7xvr/AIV+Dmnanp3h+zZluNbuIdLSSO1j2o7bpGUINqMcsMKTxXyp+2v8UtY+Nv8AwaIxeJteuGvNY1P4feHvtlwxLG4dL2ziMrH1by9xP94mvtf/AIJKa/Y+Ef8Agj/+z/qmqX1rpum6b8MtFuru8up1ggtYksImeSR2IVUVQSxJAAyc0AfD7f8ABwt+135W5v8AgnP8Utu3cR9v1DOPp/Zma+jv+CVv/BeTwd/wUc+Ket/C/XPA3in4P/GPw5bm7uvCuvqSZ4VI3mF2WN96BkZo5I0YK4KhwGK0/i7/AMHOX7F/wk1ybTpPis3iK6ttwLaBo95qELEEj5Z1j8pskcEOQeD05r8zfhX+3Z8Of24v+Drn4PfFD4SQ61Z6D4m002Gp3GoWQsJtWuItLv4Wdk3HenlJboGJz+5A7UAfsH/wVR/4LBfDb/gk/wDDrQdU8ZWWteI/EPi+7ks9A8PaKscl7qDR7fMkO9lCRJvjBb5mzIoCsTx8W2X/AAcw/HJtt9J/wT/+N7aLcDfb3MH21mkUHBJ/4l2B7c4PauS/4OHPFurfsN/8FWv2X/2pvEnhC+8efCfwXZz6Re2MUaslleE3BD5bhZiLlJIt5AZ7PGRy1fWP7PX/AAcyfsc/tBJa2/8AwtKHwTqU5UNaeK7GXTBCSSBuuGBt+3VZSBkZxQBo+D/+C0+q+Jv+Ca3iT9oK5/Z6+KOm6h4e19NCPgZ4XbWrwM9sn2iJTCGMY+0bidnSJ+a/JT/gmt/wWmv/ANmj/goj+1l8R4v2fPi14uk+LWvW9/Loek2bSX3hrbPeP5d2vlkqzGbaOF5jbg1/SLoviCx8TaVaalpd5aX+nX0ay211aTLNBcRtyro6kqykdCDyOma/KH/ghZ8//BbD/go0uW/5G2y7/wDT3qdAH2Z/wTl/4KVz/t//AAO8YeNL74UeOPhT/wAInfvZf2Z4njMN1fhLdJzKgZF+T59ueeVNJ/wSX/4Kb6L/AMFYf2ZdQ+Juh+F9U8J2Vh4guNCNlfXSXErvDDbytJuQAbT54AGM/L74r6M+Isf/ABb/AF7/ALB0/wCH7tq/LH/gzSAf/gk/4gPb/hY2p8H3stPoA9Y/4KWf8HF/w3/YN+Oi/CHwr4N8VfGj4v7FM/h7w7hY7B2QSLDLKFdzMYjv8uGKQgD5imRXm37O3/BxT8WPH3xP8M+HfH37EPxv8E2virVrXToNWjtru4s7JLiZYlmmaWyhAVS25ju4AJrx3/g2H+CWnfFv9v8A/bC+OviOFdW8XWnjW70XTr65Ad7P7Td3U1yyZBKs4WFNwOQgZehIr9uhFx1/+vQA1Jt/YDpxnn8aV/vUvldOadQBHRUmKCtAAOlFA4FFABQ33TRQelAHG/Gb4T6f8X/AV1od7uj80eZb3Crue2mX7kg9cE8juCR3r8yviDFcfDn4gah4V8RQJpmuWDiPYW/cXSEZSaF8YZZF5wcHIIxkHH6vud6/pxXxr/wWM+Atv4p+CVr44t41XVPC0yQ3LKObi0lcJtb/AHZGVh6Zb1NfXcH5p7DFLDVPhnp6Poz4LjbKfa4V42n8UNX5rsfH+tfM5wCffsa5nWVYbuB0PUZrzdfGOqaLCPs99cKg5CM3mKPwbI/LFc943+P2qeHbNd09rPdTZEaGEZH+1+FftUcLOOzPxnD4xV9OUqftQ38dnpLNZ5k1iFC5xzsjweTx16kD6mvmWWEzu7t80jNud+ue+T+Feiap4v1HWL6S5lmVriZizkIPnJ9vQdAO1eA6zBrWv/EA6Dp51HVL641BbGztLXmW4kkkCxRqF/iYsoXuSQKxxklTh7STPu8ipz+Gyu/vPXPgf8F/En7R/wAXtJ8C+CdMl1/xRrD/ALu0hIC20YwXnnfpDCikFnbjkKu5mVT+yf7Kn/BvX8KPhl4YtLv4lTXnxA8TeWJJwbqWz0q2fAJWOONlaQAgjdIxz1Cr0Hon/BHL/gmPY/8ABO39nZW1aGzvPih4sVbvxJqMKAi26mOxiY5PkwhjkjG+QyOQAVRfjz/g5V/4KG2cPj34d/s16D8TLj4f2nijVEn+Juq2kc63Gi6U/wBn8hG2LvkjlSWaVki+8bUI+UdlP4/n3FFbE1vZ0HyxXVbv/gH6ZgMrhThz1dWfpZ+yz8B/hB8Am16w+FWk+FtH+1yxyatbaNdCT94u5EaVA7bWABXJAPy4zgAD0zw9440fxZd3tvpeq6bqU2mzeRdpaXSTNayDcNsgUkocqRg4OQfSviP/AIId/scfsrfAv4X+I/G37Letax4k0jxVJBoutaxfXVxJ9unsgW/1ckcSxuPtDEmNFXL4AwAB45/wbkqo/ah/b2baq5+M2oljgDdi+1HBNfH1JSk3KTbb7ntRjyqyP1XByKK8N+AH/BQn4eftK/tL/FL4S+GJNZk8YfB2aCDxGl1YmG3jaYuI/KkJIkyY26AVpftxftw+Bv8Agnt+z3qHxO+IsmqQeF9MuraznewtftMyvPII48JkZG4jJzxUlHsFFZPhHxnZ+NPBuma9Z+Ythq1nFfQmUbXWORA67h2OGGRnj1r4T+M//Bzv+x78E/iZN4XuviDqGvXFrKYZ77QdFudQ09WBwdk6LsmAOQWhLjIIBJBALBc/QKivP/2cP2o/Af7XfwqsfG3w38TaX4u8M6gSiXlhLu8qRcb4pUIDxSrkBo5FVhnkDrXj/wC3p/wWK/Z//wCCbV3a6f8AFLxtHY+ILyJbmHQ9NtZNQ1LyWJVZnijB8qNmUqrylVYghSSCKdhXPqAnArJ8VeO9H8D2S3Ws6rpek2rsI1mvrtLeNnIJC5Yj5iAeOvBr56/YP/4K/wDwB/4KRm6tfhX43h1LXLGI3Fzod/byafqkUIKgzLBKAZYlLKDJFvRWYAkE1+bX/B2p+298O/GPw5079nlW1Kb4jaHren+KbmCSw3WX2F7W5UMsxOC2ZF+XHv2oswuj9vI5y+Plwe/PSpK+XP8AgnH/AMFaPg7/AMFSI/F8nwmvtevl8CvZrqg1LTjZ7Ddef5JTJO7P2eTOMADA71xf7Zv/AAcG/su/sLfE268G+MfHVxqHifTZTBqNjoGnTan/AGXIOsc8kY8pJB3j3+YvdRxksFz7BuPHWj2fia30WbVNNh1i8j86Cxe6RbidPm+ZY87mHyPyBj5T6VrA5FfixaftjfDD9vb/AIOVP2afiB8K/Elr4o0H/hXl5p8s6wSQXNjcImsyNbzRSqskUm2WNtrgZV1IyDmv2nHApDCiiigBsnMbfSvGP2sf2NfD37Wvhm1t9Wmn0/VdNYvZalaovnRZ6xtkfNGTtJXjJUHIr2lhuGKjeLajfTpXRhcTWw9WNehJxlHZo4cyy/D43Dyw2Khzwlunsflr8efjPb/CLw/efB7wFDcaP4f0WeW21jUW2rea5chisu4qBiMsNpI5YKF+VF2nwVeh3YbuuBgg+v8AnH9K9F/a98Oy+E/2ofHVlK255NWkuxxgFZws69uoWTBHqK86r77DXlFVZu7lq35vufwVxdi8RUzGdGu+WNNuMY9Ek9LfL7xrLuLclc8DHb6V6N+y18Ybr4J/HbRNct4pLqOWUWF1bQoN9zBM6qyL0+bcFYAnGUUZAya87r0j9kXwe3jf9prwVYiPzI11NLyTK7hsgBmOR7+Xj8e/esXKPsJKWyRzcLSrf2rQ+r35+eKTtrvv6WKv7SH/AAQ58Xa18c/FE/w18QfD3/hH7y5e9stHvtSmtb+xEv7z7MI1gdNisSEYuPk2ggYyfEdC/wCCQH7QmsfEa18N3HgR9La6LZ1S6vYX0uFBkb3mhaQgHsu0uf7ueK+zv2gvEy+Jvjb4m1BGVo/t7wo4P8MP7sHPuI1Oa+iP+Cdmu+IPE1h4jfVNQ1TUNPt5YI7VrqZphFJhzIqs5JGAUyOmGGO9fjPD/jxjsVmLyZ002rpST6R7n9XVPDvJ8Zim2pRbd3Z6PvodZ+wH+x9pv7E/7P2neD7WePUNUZzfaxfhSv227cKrsAclUVVVFB52oM8k59X+JXhj/hOPh5ruh7lT+2tPuLDc2cL5sbJk45/i7VsraBPu4HtjinNDkde1fR4itKtUdWrq3ufquDwtLC0o0KCtCKskfgH/AMGwX7GPwD+I/hr41fCX43/Dj4aeLPjF4B8azRtaeItKgutRSzWKO3dYfOG9okngmJ28KZATjcK/WCT/AIIy/smqm4/s4/Bv5Rkk+FrTgf8AfH1rxP8A4KP/APBuN8IP+Cg3x8h+Ktr4i8X/AAp+IzIFv9W8LSRxrqjqAqzTRsuRMF+XzI2QsPvbsAjyPTf+DUbRb11j8Q/tVftJaxY42yQRa0kG9P7oLiUD/vk1kdJ7B/wcEfDjQfhD/wAEFPi/4b8LaTpug+HdF0nTbWw0yxgEFrZxDU7TCIigAKOSBivl3/goh478ReBv+DQT4ayeH5prVdU8DeD9L1SWJ9rLYzJbJIpxnIkOyMjurn6V+ln7T3/BPPwx+1R+wXffs+a1r3iSx8K32k2GjNqVo8P9piKzeB0cs8bRmR/IXefLwcsQqmrWn/8ABPrwLJ/wT+0/9m/Wvt3iDwBZ+E4fB8jXbKLu4tYoViSUsqhVmXYrq6qNrqrDpigDzn/gk5+yN8EfhT+wT8Jbn4d+E/CFxY614U03UZtbXS7d73WZ5LaNpbm4lALNIXLbgSQhyvAGB+bH7ePxX8K+FP8Ag79+Auqah4i0XT9L0nw/aadd3M19FHb2dxJb6pHHC77tsbFpolCsQcuvqK9t8J/8GmOh+AdFl8O6D+1N+0PovgdpmkTQrHVI7eFQzZOQmIi5yct5QyTnFdd4l/4NC/2R/EngvT9PK/E611i2Znvdfi8TGTUNXZiTunEsbwZBOR5UUfTnPOQD9MLmTTfENk1rObG+tr2Lc0Mm2RJo24zg5DKeg45z6V8iftsf8Ebv2SvjL8LPF2seNPhF8P8AQZY9OuLu41/TrJNGubMqrN5xntzGCVPOHJBxzmua/b4/4IA+A/27br4d3c3xK+KXgO/+GfhuLwvpcvh+9t4VmtYyCrSgxbjJwOVZR/s189T/APBo34V8XzW9n4y/aW+O/i7w1HMkkuk3d7GY5lVg23c+8LnH3guR2oAqf8GZvjnxF4l/4J1eONJ1S6vLvw54Z8cT2+gtMflt0ktYJp4Yxn5U8x/Mx03zMep5tf8ABFPVrfwV/wAF6v8AgoN4b1GaK313W9btdXsrNnG+e2W5uXaQeoC3luT6eYM4r9Nv2XP2UPAf7GHwT0X4efDfQLXw34T8Pq32SzhLOzOxLPLJIxLySOSSzuSxz14FfGP/AAUZ/wCDdXwL+3l+1R/wujRfiR4++EXxCurKGy1C+8NuipfeUNizH7siymPbGSJMFY0+XIJYA++PiLP/AMUBr3ytgadcZP8A2zb8a/LH/gzUOz/gk7r6+vxF1PPt/oWn/nX13/wTb/4JX2f/AATt+FPjLwuvxO8efEr/AITS6W6uL7xLOs1xaEQ+ViI84BHPJPNbf/BL3/gmP4S/4JUfs6Xvw18F+IPEviLR73XJ9ea41toHuUmmhgiZAYo0XYBACPlz8zZJ4wAfmf8A8G1fx80v9nr/AIKS/tbfs/8Ai+4Gh+Ltf8a3ur6NZXY8v7c1rc3a3CRs2C7+U0cqgD5o1dwSASP3Aa5VE3NheccnGT6Zr4J/4KVf8G73wS/4KQfFFfiJdXnib4c/E4+SJ/EnhqdI5NQEShIzcROpVnVBtEqbJMKgLsqKo8o+Df8Awa46F8Ofi74U8W65+0p8evFsnhDVrXVrSyutSjWCV7eVJUifcJD5ZZAGC4JBIBHWgD9Tkl3D7pHt6UpfBoWLb79845zQy55oAPMo8yo2faKPMoWuwEwORRTFkyvSl8ygB1DcqaGOF9ajeYLkc9KAIz+7P45r55/4Ke+ObPwp+xt4riuCvnassGn2yEZMjyTKTj6IGb/gNdx8ev2xfh1+zjp0s3inxNp9rdIhePT4nE19P7JCuXOemSAPUivyc/b7/wCCg2s/tb+MIhZ2r6P4Z0pmGm2UjjezHhp5MdXYcAdFHHUsx+q4WyPEYrGwqyi1CLTv6HwvF3EOGwuDnhqclKclZJa2vvc8M8c+MofDtqU+WS6x8seenua8f1PUptX1GaaZmkllOSTyfoK2tfkeYyyP88jHk7uv1zVXwB8Otd+LfjKPQfDGjap4i1m4xsstNtXuJyDxuKoCVUd3bCgckgc1+8VcRTpR56jSXnofk+T4NW9xXZjp80Ybjb3Oen+f6jOMiv0j/wCCDn/BKKbSPHr/ALRXxE01Y7y83jwNpdxH89rCyhDqkgP3ZJEBWIdRHI7ty6BO3/4J5/8ABDSLwpqOn+LvjTHZ6lqELCez8LowuLSBhgh7txxMwIP7sEx8/MXyAP0zitwi43HjgGvyXjDi6GIj9UwjuvtS/RH65wzkcqX7+urPoKlttDbWxkdv8/5/l+PP/Bev4E+Cde/4LAfsMrqHg/wzqC+PvEV3YeKBcaZDIPEdtDdaRHFBeBlIuI0SWVVWTcAJHAGCa/YkIVX1r8qP+C5Om3Oo/wDBXr/gnfNFbyvDF4u1ASSKpZY83ui4JIHGcGvze1nc+2tpZH6UfBX9n3wP+zf4OPh74e+D/DHgfQWuWu/7N0LS4dPtPNbaHk8uJVXewUZbGTgV+bf/AAbjHH7T/wC3p/2WbUv/AEv1Gv1V7V+WH/Bupp1zp/7Tf7eDT280K3Hxj1GSIshXzEN9qOGBIAIPYgmgCh/wR4cJ/wAF3/8AgoI/y4bUdI6f790D+o//AFV2f/B2MzP/AMEXvGm07f8AieaNntj/AE1M/wCe1eS/tP6f8VP+CKX/AAVZ+IX7SHhv4b+Jfiz8DfjtaQL4tg8P27T6h4dvYFUByoUiNAVdkaTbE/2h0Z0ZI93nv7X37XnxC/4OQoPC/wABPg18I/iD4J+Et3rtrqPjbxv4nslt4re2gOfLjaMyQh1JLrGJWlkkjjUokYkIAPob/gvB8cPEnwS/4IF2K+Gbp9NvPGWn6B4YuJ1cxstrcQIbhAw5HmRRtEcc7ZGwTXzN+xt/wWm/YM/Yz/Zn0f4d6b8HfiHqSQ6fHFr1/feD9JuLjxHdeWqz3FyzXf7wuQeD8qrtVQqqBX6S/wDBV/8A4Jww/t9f8E3vEfwZ0O4j03UrO0tbjwxJcSMsMd3ZYMEcrAFhHIitEzYJCyFgMjFfDfwK/wCDgy4/Y++Gmk/Dv9qP9m74qaL8SvCdpHpV3qGm6DayWmtiACMXIM0kSkuqhy0DSwkklXAIFXdE2ZxP/Bv98Z/DOtf8FjPjDY/s++HfGOh/s7+NvDv9t3GkatYi3i8OajC9ssaARyyxIC73QjG4N5bqmNsAA77/AIN4fgd4Z/bQ/aI/ae/aM+JWkaf4u+IEnxGutC02XVLZLqPRLeONZAbcODtfypYYAxGVjtUCkBnB/Rj/AIJ5ftoeEf2+f2bLD4keC/DuveF9F1C/urKOx1i0htrxXt5WjZmSF3QKxBK/NkqRxXw3/wAGo+n3GnfBD9o4TwTQNJ8Xb9lEqFCw+yWwyM9s9/rSuFjkf+C73wD8K/sYftvfsi/Hj4aaPYeDvHWtfE6y8O6xLpNulpFrFtMUVzMqABnMBngL43NHOQT8ibep/wCDurQbKD/gnt4W1FLK2XUG8c2Ucl0sKiZ0+yXnyl8btowOM9h6Vd/4OeLC61G5/Y/NtazXH2f406XI/loX2KMcnA4Hua9o/wCDh39hXxh+3r/wTo1Xw/8AD+E3/jLwvqlv4j03T1YB9U8mOSOWGMkgGYxSuY1PDOqrxu3AuFj3r9t7xYf2Zf2HvjL408IWOn6Prnh3wfquq2r21usOJ4LWV4mO0DJVhkE5AOexr45/4Npf2Jfh34e/4Jp+FfiVfeG9I8RePfihcalf6/r2qWiXl7cKuoXMEcQkk3MsYWJWYA4eR5JDlmJrtP2J/wDgoTa/8Fl/gr8T/g342+E/xD+EviePwg2meKINasDbWu+8jltn+yeYVnO1gW2yRIQNo5yCfkT9iv8A4KY/EL/ggp8Mn/Z1/aI+CPxI1zR/Bt9d/wDCJ+LvCdhHcWOtW1xcS3AUPM8cTAySvs2ymRA4jeNSm4lwszo9W/ZD8Ffslf8AB1d8J4fAOiWXhvRfG3hC68TXOmWUIhtba9kt9Wt5mhjUARiQW0blVAUMZDj5iK/Z6vyX/wCCb3w8+LX/AAUy/wCCrsv7ZPxI+H+tfCfwH4P8Nnwz4D0LWI3h1HUFYz/v3Rgr7Qt1cuzlArtLEqFxEzH9aKkoKKKKACkcZQ/SlzmhhuWgD5M/4KEfsRzfGq0/4S7wzEi+KNPhEc9s3y/2nCuSAD0Eq5YKTwQxU4yCv54ajp9xpF08F3bz2s0bFGjmjaN0YHBBVgCD7EZ74xzX7fPBuVueo9KwfFXwt8P+O7RYNc0XTNYhU7lS9tUnVT7Bwa9zAZ3OhD2cldH4zxt4P4XOsU8bhKnspy3Vrpvu/wDgH4s25+0TbFzuH90bv0H8q+5P+CbP7HWu+C/FEvjvxRbSaS09k9tp2nToVnAkKlppB/yzJA2hD83zNnb3+ufB3wX8KfD53Og+HdF0bzD85srKOAv9doGa6VLJYyu04UdqrHZ5OtRdGCsmc3Bvg3h8pxkMdiqnPKOyS0T79z5s1r/gnBoOo+JWuYfEGqW9hI+9rZo0eQEnJxJxx9VJ9691+Hfw60v4YeGrXR9HtVtbK1+6oOSxPJYnqSfU10Xl0BMGvhcv4ewGBqyr4Skozluz9pp4elCXPFajqKKK9w2CiiigAooooAKKKKACiiigAooooAKKKKACiihjhaACkf7hpFkytIzblo9A2I5I9yfSvB/jN/wUA8I/BTxBrGm3+l+Ir6TQ0Z7h7OGIo2E3kKXkXJx9K95I+XHrX5kftxMR8W/iRhj/AKuYnPP/AC7CvrOC8hw+aY2VHEXta+h+eeI/EmMyTL44rApczlrddLH13+yP/wAFEvBP7YnirVtF8O2PiDT73SbZbthqMEUazRFtuUMcj9CVyGwfmHXkD304JH1r8tP+CGJM37RPi5uMtoIOAMdZ4/8APOa/UpXx/Ks+MsooZZmc8HhW+VWs36HT4d8QYvOsmp5hi7c7vey8yYjIrN8VeEtO8aaHNp+rWdtqFjMMSQTR7o3+oNaAk9eKQyZPSvluZLU+5krqzPmjxr/wSe+CPjOaSQeF59ImmJLPpt/PAMnr8u4r+mK4G8/4ITfBy+ZidU8eRh+oTU4f6wf596+1Wi3fxUCLA6161PO8fShyU60ku1zxJcOZbKfO6Eb97K7PkLwd/wAEPfgH4avFmu9H13X2Ug7dR1aXYceqxGMH8RX0h8LfgT4O+Begf2X4N8M6L4Zse8WnWkcAc/3m2jLN7tk11yoQfWgpk9a5cVmGKxCtWqSl6s7sPl2Gw6tRppeiIhEDj9B6U9etOEfvQse3vXEtHaKO7W1mOYblI9eOaj+zKPT8R19/0FSUVQCEfLj2piWyo2eOuTx1NSUUARPbbh94/jz/AJ//AF9aRbNUbjoPuj+6fb/61TUUANEWCPmb86b9mU/ew2ORx0qSigCP7Pj7p2+nFNNmuAPlC9Mbfw/lU1FAEP2NSvzbW5yCR39acLcA57+vrUlFAET224sdxGfT/P8AL1pEg2yZ7dwQOf8AP+e+ZqKAI1ttrA59+O9SUUUAFFFFAABiikQ5FLQAUUUUAGKKCcUbqACijdRuoAKKN1G6gAoo3UbqACijdQWoAKKAciigAooJxRuoAKKM0UAFFFGaACmyHEbZ9KdSP9w/SgCAs0RxtA7ZJ704OwHTP414T+3D8b/EHwT8N6O/h64htZ9SuWjklkiEhRVTOFB45PqK+bR+3V8Th/zHoP8AwBh/+Jr6rKODcwzHDqvQas+7fT0R8LnviBlmVYl4TEJ8y7JdfVn6DFsocjGevNfmT+3D8nxX+JBOMbJl/wDJYV17ft0fE6Qbf7eg/wDAGH/4mvHvjH4svvHWneJtX1KRZNQvbOd55VTYHPlY6DA7V+hcE8K43Lcd7XEWs1bRve/ofkPiPxxl2d5esPhlJSTvd2/Rm5/wQxJ/4aG8WBf+gCOfpPH/AI1+pkh6dK/BP4CftF+Lf2ZvEl7rHgzUItLv9QgFrPI9tHcB4gwbaA4OOR1r1r/h7V8dsf8AI2Wn46Vbf/EV6HGnh3mua5rLGYZx5Glu329DzvDvxYyjJcnjgMWpOcW7tK61fm0fsosm1f8AAUjOA68N82P8+tfjWf8AgrV8dsf8jXZ/hpNv/wDE1+mf7Cnxg1j4+/sv+E/FmvyW7axqkMn2k28XlxyMkzx7gvONwQEgcZJ/D8x4k4JzLJKUa2L5bSdtH1+4/ZeEfEvK+IsRLDYFSUoq7urK34ntFFAORRXyJ+iBRRRQAUUUUAFFFFABRRRQAUUUUAFFFFABRRRQAUUUUAFFFFABRRRQAUUUUANTpTqanSnUAIxwKRWxQ/Sm0AObkU3FGcUok3D60BdCUUc+hoHB6GgAopd4/u0u4en6UANopS49KTNOwAaF5ozSh8dqVgHjgUU3zfajzfagAc02gv8ANSmRcUBvsJTgPembqVZuOnt9aLB1sSHkUw/K1PprLnmgBVbNI5yppFP60pjyKAPn/wDbo+C/iD4yaFocXh+zS8msbl2ljaZYzhkwCNxA6183r+w18TmH/IvR/wDgfB/8VX6GLa7RtyNvpineVtH0r6vKeMsdl9BYbDqPKu6v19T8/wA98O8uzXFvGYlyu+ztsfng37D/AMTIz/yL8fH/AE/Qf/F15F8XvCl94K0zxNpOowiDULK0mjni3hthMRPVcg8EV+tTruXt09K/Mj9uE4+LPxH7jZMQOw/0YV+h8FcWYzNMc6GIUbJX0VtfvPyPxG4FwGR5fHE4Vybbs7u+lvQ+SfgN+zn4u/aV8Q3uk+DtNj1O+0+2F3NG9xHBtjLbQQXYZ5OMV6mf+CUPx0A/5FC3/HVbX/45Xpn/AAQujz+0P4sJx/yAFHT/AKbx1+pvkKT0HWvS4y8Rs1yrNZ4LDxhyq1rxu9vU8/w98JcpzvJYY/FSlzSb0TVt/Q/GY/8ABJ/47Ef8ifB/4NrX/wCOV+mn7A/wl1z4Gfss+E/CviK3htdY0uKY3MUcwlEZeeWRRleD8rDv617SYQR/9ampbbSCW3fh/n/Jr8v4l42zDO6UaOLUUou6sra/eftHB/hrlnDleWIwUpNyVtWrW+4lHSigcCivjz9ECiiigAooooAKKKKACiiigAooooAKKKKACiiigAooooAKKKKACjOKKRl3UALnNFNxtWk3GgBUOFpwORSEYWhDkUAI/Sm05zTQuQaAOS+OvxQ/4Uv8IvEXir7F/aX9gWEt99m83yvP2KW27sHGcdcGvjA/8Fwvl/5JvJ2/5jP/ANpr6i/bs4/ZD+In/YBuh/5CavxdPA/Adq7cPTUlqfvHhHwLlOe4WtVzGHM4ySWrVtPJo+/v+H4P/VN2/wDBz/8AaaB/wXB5/wCSbt/4Of8A7TXwBt+n5UAfT8q6fq9Psfr3/EF+F/8Any//AAKX+Z+gJ/4LgAD/AJJu3/g4/wDtNN/4fixn/mnEn/g4/wDtNfAOaD9F/Kj6vS7Ff8QX4V/59P8A8Cl/mff3/D8D/qmp/wDBx/8AaaP+H4H/AFTU/wDg4/8AtNfAG36flRt+n5UfV6fYn/iCvC3/AD5f/gUv8z7/AP8Ah+B/1TU/+Dj/AO00D/guDj/mmzf+Dn/7TXwBt+n5Ubfp+VH1en2D/iCvC3/Pl/8AgUv8z9AP+H4X/VNm/wDBz/8AaaD/AMFwv+qbt/4Of/tNfn/t+n5UjfKp+7+Io+r0+xX/ABBfhXpSf/gUv8z7+b/gt9zlfhwynuf7ZH/xmnQ/8FyI3jXf8N5lzgE/20MYPT/lh36+vtXwBlVyWbaAdvT5s+mB3Fff3/BOX/gm81tc6f4++ItiBdKy3OjaRMBIIupFxMDn5uQyJ/AcM3z8LnUpUoq7R8XxdwVwXkODeIxNJ3+zFSleT+/bzPr79nr4p6/8YfA0Os694Rm8HNdndbWc179ouGixw8i+WhjJ/unJA67TxXoCdfbP5UkdmsIG3C9OgqTy+a8+Tufy/WlCVSUqUeVPZXvZdrvUdRRRUmYYooooAKG6UUHkUARMcKfYV+Y37crgfFX4jN/eWZR9fswr9O2iyp/wr54+M/8AwTs0H4zeJ9e1S417WrGTXlYSpCsRWItHsJXcp5xzzX13BWcYbLMY62K2t09T878SeHMZnOXRw+CV5X20X5nxt/wQzbyv2iPFy8Nt0JB1/wCm6f0r9Tl+9nPU186fscf8E3fD/wCxv401TXNL8Q69rV3qlotky33lBI0DbjgIi8kgflX0d5WDUcaZth8yzWWKwjfK0t/Q28NuH8XkuSwwWNSU03oteo6iiivlD74KKKKACiiigAooooAKKKKACiiigAooooAKCcCims2KAHA5FFIhyKU9KADNFRjrUh6UAFFR7qN1AElNZqbmlA4NAChuOaMrTaKAJD0psdOPIpFXbQAjjvQvQ0rDIpE5BoA8j/bsOf2QfiJ/2Abr/wBFNX4ut1/AV+0X7dYz+yB8RPbQbv8A9FtX4ut1/IV6GD2P6q+j9/yL8T/iX5IKKKK7D+ggooooAKKKKACiijk9BuPYetAegjNtUnGcDp60kkywRGRmXavVucDv14/z+FDkGMfdZW4OCGHTt2P+H5V9+/8ABOb/AIJxNaTWPxC8f2UazMRNo2jzJu8nJytzOD/GTgqh+7wzEsQqRKoorU+P4y4uweQ4N4jE77Rit5P/AC7if8E6v+Cb32eWz8e/ETTWjuE2TaNpFyMeRnkTzx4B39NqNjb1Zd23Z99W0P2fasY2ooAA7VLDZeWOq/KcqAMY4/z0/wD1yiPDZry6lVzeux/EfEvEmNzvGPF4uTfZdEuyHUU3zlxnrzjigMT2rI+fHUUUUAFFFBOBQAUU3eSOAD+NKDntQAtFFFABRRRQAUUUUAFFFFABRRRQAUUUUAFFFFABRRRQAUUUUAFNKZNOJwKb5lACqu2lpvmUeZQA7FIxpSflqPqw+tAARg0Ur/epKACjNFFABRRRQBJRRRQAjHAoQYFD8j8aUnav0oA8h/bq5/ZA+Iv/AGAbv/0U1fi63X8jX7Rftxnzf2P/AIjH7oXQbrr3zEf8a/F0gM+Ac8Dt3r0MHoj+pPALEUoYHEqckvfXXyCil8tlBLqVxzzSHg7ed3XGK6+ZH9CRqwl8LX3hRTjHwOnPb0H4U1uOnPrTNPQKKKD0/wAaABRlqbG2/O7AXoCDnOen+evtzmlJ/d5567Tgj5f88/iMV9+f8E6P+CcLWt7YePviBaqzbBJo+jyx/LATgrcTKeN2OUQj5dxZsvgLNSooK7Pj+MOLsJkODeIxO/2YreT/AMkM/wCCcv8AwTgjmm074hfEPT1dmVbnRtIuEwIs4KXE6Hq2MFY2GFJDEBwoT7+trRLc/Kq4B4UDAB6fyp0FisaKvGFO4YGMVN5eK8mrUc3qfxLxNxNjc8xjxmNld9F0iuiS/MdQ3SikcZQ/Ssz50/Ob/gt5/wAFz9a/4JF/EHwLo+m/DfTfHkPi/SL7U5nutbk01rX7M8SbV2wSh93m552/dx3yPv74deJX8ceANB1uSNbeTWNPt754lYsIzLGr7QfQbsZxzjtX4J/8Hnkn/F8Pgz/CP+EO17PP/TxaV+63wCfHwI8E45H9g2Pf/p3joHZnZUjNtUn0GeKiN1j+Hr0+tIt4s2AvO4flQI+Uv+Cq3/BWzwv/AMEovB3g7WPE/hDxJ4tTxlf3Fhbw6PNbxvA0MayMzmZ0G0hsDBz7V7l+yh+0Pp/7Wv7NHgX4m6Tp95pel+PdDtdctbS7Kme2juIxIqOVJXcAcHBIzWT+09+xV8Jv20NL0mx+KngnQ/G1noM73Onx6krOlpI6hXdQCACygDJrtPhd8NdB+DPw+0Pwl4V0630bw34cso9P03T7fPk2dvEoVIkySQqqAAMntQB8A/8ABbD/AILta1/wST+K3hXw7pvwx0vx5b+ItBn1qWe6199Ne2EUpjMagW8wfOM5JX0x3r9DvCWqv4h8M6ZqEirG19axXLIOQhdQ2AfbOK/n7/4PKz/xkx8M+vPgS/Gcn/n6av30+G9/Hb/DjQvMaONYtMt9xZwNo8peT+WfpQOx0lFcp4W+OXg7xzqs9honirw3rF/bjdLbWOqQ3E0YzglkViwGe5FdKt1u2/L94469KBWJqKRm2qT6VBLqcMCM0kkcYUc7nAx9aALFFcYf2ivAI8QLpP8Awm3hH+1nmFutl/bNt9oaQ8BBHv3Fs4GMV1sV55pHy8E4yDmgCaigniozcANt+XdnGN3PTNAElFV7vVbfT4JJbiaK3hiUu8krhFVRnJJPQDHU8VgeCfjR4T+JUtzH4c8TeHvEElmAZk0zUoLtos5xu8tjtzjHPegDp6KiF0Ay7ht3HGc0on/2fT8qAJKKhudQhs0ZppY4lXkl2CgfXNclpX7Q/gTXdcXS7Hxp4RvNTdyi2kGs28k7MOoCK5bI7gDigDs6KiF2p2/7XTnr349e/wCVPD5NA7MdRRQTgUCGs3amhaXOWp9ADMYanHHtSOO9NoAeT8tMBwaKKAAnJooooAKKKUDg0AJRRRQBJRRRQAEZobpRQ33aAPmH/gstdvZ/8Ep/2hZI3aOaPwFqxVkOCp+zPyK/kvsfFGp6ZLm31LUoT1BjunQ5+oIr+tD/AILPrj/gk5+0V/2IOrf+kz1/JD1b8P60a9Dsw2Jq0dKUmu+r/Q3tP+KninSbnzrXxR4mt5s/6yLVZ43H4qwNdR4d/a6+JnhhI1t/GmuTLGScXsovdx9zMHP4ZxXnNAquaXc9Khn2ZUNadeS9G0fR/gn/AIKa+MtDhWHXNL0jxAuSWlVTaXDccDK5QY9kr13wL/wU48D68Ug1uw1nw7Iv37hoxeQZyBj93mTv/wA8+1fCbfNS/eO3orccfjW0MTKJ9llfipxDhFaVbnj2kr/jufrD4H+I2g/EvSEvvD+safrFs4zm2mDMn+8v3lPThgD7VtB9pDbtq9n/AIfz/wAOh/An8i9P1S90C9W8tLy40+6jGRPbTSRSKB0O5SG9O/av1U/4JT/Ejxd8I9U03xp8XNNh8cWaYl0zSb0+TfWrHAjnllwVcgAlY3QnJBLqQFrso1p1NEj72p9JLLcvw/tM3hyztZW2b9Oh+jH/AATh/wCCcEcn9n/ED4gaerMQtxoukzoD5Q+Ux3My5Iz3SMjCjaxG8AJ+gFtAsAVFxtTAAx0rxz9mv9tfwH+0zZCPQdSW11SHJl0m8IivI8DJYJk71A/iTcOexr2KK43npgnBrirSk3aR+FZ1xpX4oxP9o1anMnsltFdEl08yzRTRJxRv56VgeOOpGOFP0paG+6aAP59f+Dzf958d/gzH6eDtcz+Nxbf4V+6nwGfHwN8FR7f+YDY9Twf9HTivwx/4PIbNdR/aP+Cduz+Ws3hHWYyw6oGubVc/r+lL8Yv+DjT9pbQv2VLzQdL/AGc9Y+GdqmiW+k2/ji+ttVMOmRsFgW5QyWcUIkZTiJml2LJIhxLjawaHsX/Bxj/wWY1Lw7q19+zF8GbrVpfFmp+RY+K9X0Z911CZ8bNHtPLzIbqUMnm7ACqSqikuzeX9I/8ABCT/AIIu6X/wTc+E0fizxha2Op/GjxZap/aV0qiVPDdq2GXTLZj0AIBmkXHmuoAJSOMD5E/4NTf2Ofhz8TLjxh8dvEOuW/ir4qaBq0mm2ulXQ3TeGhMgc6iwckyT3W+VRMPlURzICX84L+4aKok3Lt5I6ce9Aj8a/wDg8Wh3fBP4G/MykeJNRwQen+hpX6A/8EZl/wCNTX7OLdT/AMK70XJPJ/4848c18A/8Hin/ACRT4G/9jJqP/pGlff8A/wAEZv8AlEv+zj/2TvRf/SOOgg/Ij/g8WuI7T9qv4UyzR+bDH4KvHkTG7eouySMd8ivWfCf/AAa4+Pv2p/DGn6r8fv2mvFPim4uEhu7azjFzrUdkrIflSS/mYLhSFBSFABxtIGa8f/4PLF/4yU+GZ/6kS/8A/Spq/fT4aRZ+H2gyD5d2m23HPA8pf8560F9D8Y/jN/wZreE18DXDfD34sarN4khg3W1t4p0e0ksbiQfwl7dI3hVum7bIVznD4weB/wCDcr/gqP8AEr4X/tox/s0/FXWPEWvaT4hnvdI02PWNQN/ceFNZsUmklthPJIxNs4t7iLarPiVYdgCszV++zRY5z0596/m0+Kl5H8O/+DrWSaxsYI44/i7pGYEGxA11aWqzSYA+8zXDylsZLMWJyTQM/oz+KvgiT4mfC/xJ4dj1C40mTxBpV1pqX1vnzrIzRNGJUwVO5N24YIOQOR1r8h/EP/Bn74d+I2pi88aftFfEHxVdRx7Fur7SILi6A46y3Ekp7egr9ffHfxD0X4YeDNW8Q+I9UsND0HQrWS91HUb6dYLaygjUtJLI7EBUVQSWPFflf8Tv+Ds74d3fjqPw78Gvg78Svi9qMhdohEn9ntdohO54YEjuLpgBhjugTAPzbeQAzsYGpf8ABml8Ef8AhGnt7T4p/FCLUCgCyzWmkyWu7/ahW0RiPbzQfeviv9mn4q/Ez/g33/4Ky6d8K/EHiq+vvhumpWVjqtnFcTLompaVfspXU4bRmKQywtI7FlAIaKVSzK2W+4P+H+H7X3jaSS68KfsFeN5NNb/VNetqrSJ/vf8AEvTP5Cvyf/4LNfHD4r/tG/thXPir4z/Dv/hVPjS48MWMEWgYcNHZJJc+TM3mMW3s7SZzt+4OKC43P62mk3bhjjGc1/MD/wAFd9H8UeIv+DjbxjYeCr+30fx1qPj/AMH2Xhm/kYCGw1OTT9ESznfKSDbHO0TklH+6flbof6fNzEMM9c49q/mv/wCCgESp/wAHWNntXao+Mvw7OBxyYtAP+NBNmfWTf8GrXjP9phota/aI/ae8YeNvELOZPKjgm1SOyLBQyRTX8sgXDDGUhjXaqgIAAK8x/bc/4NObX9nP4F+IfiL8JfiVrmva94Gtn1yLTNb06GK5nht1M0v2e5tghjuVRS8f7s7nQDcpbcv73CHj7xPc8Dmo72wjvbWWGVY3jmUo6lc5BGCPxoEfkh/waxf8FGfGH7UPw88dfCv4geJNT8Wat4D+x6xoGr6pdG5vJ9NuA0L2rOw8yQQSwhxJI7Pi8CE7UXP6W/td/s8y/tT/ALM/jL4d2/ifVvBtx4s057GPXNMZlvNMckETRlWU7gQONwz61+B//BrZAujf8Fi/Gllblo7W18D6/EkKthdseraYqZHqAa/oM+Nvx28J/s4fCrWvG3jjW7Hw34X8PQG4v7+8k2RxLkKoHdnZiqqigs7MqqCxAoKkfktrP/BnZ4N8caxJqXi34+ePfEeoSKA95caPayXUgH96WdpWPtzgehqfxR/wZqfBmfwjcRaJ8VviVa6t5f7qTUbLSrqxDDP3oY7aJyP92UEetbXjX/g7R8K+KPiBNoHwZ+APxP8Aiu9vEZ2ZGaznlh4BlS2t4LqfYGO0tIkeD1wSBVcf8F3f2yvFsclx4f8A2CvFz2MhzCbptVZwD03A2KZP5UBys+R/+CVH7SfxV/4JNf8ABXaH9mvxX4uk1rwPd+I4vBeoaXJqcsmkWs06I1heWUUu77PI5ltlaOMKG88IxYxoR/RlnBH1r+VX4g/FT4ifGz/guv4B8VfFLwavw98d6r8UfBr6loChh/Zu2+01Ih87M3zRLGxyc5boAa/qqC4P40FElIxwKWmv0oMxo61JUYODT1bdQAMMimVJRigCOipMU1uBQAijNOI4pEpSeKAGU5BmmjrUmMUARnrRQetFAElFFFADS+DTicrTH+9Sg5WgD5k/4LQf8onf2iv+xB1b/wBJnr+SAdfw/rX9b3/BaD/lE7+0V/2IOrf+kz1/JCOv4f1oNIhRRQOtBrtZsB1pfL8w7efmzj/aHI4/zmkPyk/7Pp9M9fpX2R+w5+w8bGfT/HfjO1ZZjmfS9Injx5RIIE8ykdcconUfePpWtKjKo7RPn8+z6hlWGliMQ9Xsu4v7C/7Ea2cFn428Y2S+cx83TNKmi+4DgieYEYz/ABKvYbSc5219gyP5x+csy5yRnr/9fp+VNJz6/iev19/8+1FfQ0KMaK03P5c4i4ixGa4h1sR8u1h0F3JYXUdzDI0E9uwkiljYq8Lg5VlI6EHByOeBivtj9jv/AIKoa5os1n4f+IUM+uabGoC65Fzd26g/8t1ziRQDncpDYH3XNfGOjaLNrN0I4vk5+Zj/AMsx3P19B3rvNL0uPSLBbeHjoWY9WPetHhI1t0cmW8VY3KanPhZ27r7L+R+ynhjxjp/jPQbXUtLuob6xvEEkM0Lh0kU9wR/nNag+Y9a/Kz9m39qPX/2cPESSWMkl7okzD7Xpssh8uTn7yHnY/uBg9xX6SfCD4zaH8avCNvrWg3i3VrNhZEyPMtpMAtHIv8LjIOPQggkEE+HjMFKi79D+i+D+OMLnVLl+Gqt49/Q7Ohvumo0fdTmYmNuMnHA9a4T7pan8+/8AweaIP+F7fBvLL/yJutrg9f8Aj4tuv9Pxr9v/AAD8P9H+KH7LWg+HvEWm2utaDrnha2sr+wuoxJDdwSWqq8bA9Qykj+WK+Gv+C7H/AAQ+8af8FYfiT4D1jwv408MeEoPCmi32lTpqltPPJcm5lifcvljACiPuc/NX6I/DXwzN4M+HuhaLcSJJNpGnW9jJImdsjRxqhK55wSOKCrn84n7Sfwn+IH/Btv8A8FRNJ8X+CZtU1r4c+IBJdaWJSyW+vaZIzC40i6cqIzcwYBR+SB9nk/idD/Qt+y/+0l4U/a4+BHhX4jeCNQGpeGfF1il/aOcLLBnAeCVQTsmicNHImSUdGU9K5f8Ab4/YV8H/APBQf9mfxB8N/GKNHb6khm0/UYo1a50W9UEw3UOf4kbqOjqWU8Ma+SP+CK3/AASf+PH/AASu8V65o+ufE7wX4y+GPicfabrSLa1u4bjT79Rhbq1L5RfMGFljPDAIwIKHeBdHhH/B4of+LJ/A3v8A8VJqP/pGlfoB/wAEZuf+CS/7OX/ZO9F/9I468n/4Lmf8Eo/Fn/BVjwD8PdH8L+KvD3hOTwXqdzqN1LqtvLMtyssKxhUMY4IwSSfyr6U/YT+AN9+yb+xf8L/hlq19a6nqHgHwzY6Fc3dsrLDdPbwrEzoG5wdpOO1BJ+Iv/B5Y2P2lfhku5R/xQl/1P/T0a/fT4ZSH/hXWgrt+7ptt/wCil/z6e9fnb/wXK/4IfeOP+Cqnxo8GeJfC/jTwj4Zs/DWhT6PPbaxbTyNctJP5u4GMEbccetfPugf8Ei/+CmXwr8Pw6P4Y/ai0+TTbQlYxfeL9QuH29vnuLOaQAdAu7AHA4oKuj9n/ABd410nwF4avtZ1zUrDRtI0yBrm8vr+dbe2tIlBLPJI5CqoAJJJAA64FfzWfsN+PJP8Agox/wcnaL8QtF0uf+w9c8c3vikYhlZLXTbCzlFtPNlQ0Zdbe1B37QJrhFPJCn6c8Tf8ABuT+2N+1pfN/wuz9qO3urS4uQ89tLqGp+ILWMBVAljsna1t1f5QMKFHc9a/Rn/gl5/wR5+G//BLfwtqi+GbjUvFHi3xCqR6r4l1hIvtksSHK28IRQIbcNhigLFiAXZ9q7Qdzxj/g6Y1vU9K/4JH+II7HzVs7/wAS6Lb6m6A4W3+2K67vQNOkCZxg7sd686/4NKPBnhWz/YU8WeIbHT9Ki8Yal4vubDVr1I1F5JbwwwNbQOw+cRL5kroh+XMkhHVs/pH+09+zP4T/AGu/gJ4o+HPjixOpeGvFdk9ndoNoliPBjniYgiOaJ1WSNwMo6K3avxs8Of8ABt1+1h+xV8RNU1D9nP8AaI0bT7XVswzzTXF1odzcW6kGJbiJI7mCZlywD7VwSxQIHZaBI/clSXP3Mrn8uff/AD/Kv5n/APg6uk83/gq/qDBtyr4D0eP733T51+SP16e9faR/4Iuf8FAPjvpUOnfEX9s+80DS2nzImiX+oXEm0oRkmD7EzqdxUq0mD1Oaxfjf/wAGglnr3giC58KfHLxFqPjiaXfqdz4u0yO50/UVIC7V8oieJgRnMkk+4ADA60FRkkftTHMspx6/5/zmv5tf+Cg0nm/8HW1n8u0r8Yvhyv1xB4eH9M1+wf8AwR2/ZW/aO/ZU+HPi7Rf2g/iTH8SJvtdpD4Wlj1SbUBY2UUJRg0k0UcpdnIJLs5IRTuzmvnP9pH/g3/8AHfxy/wCCy9v+0tY+PvCNh4Yh8b+GfFb6PPaXD37R6SmmrJEHA2BpDYvtPQeYue9BN0fq4OlNkOFpVORSSruQ/Sgk/nN/4NgF2/8ABZ/x1/F/xRfiP8f+JxpdfYH/AAd5+Jtc0r9ij4babZyXEegax46SPWFjJVLporC6mt4nI6jehlAbjdEjdQDXUf8ABIv/AIIOeOf+Cdn7d/iD4t+IvHnhLxFpWt6Fqekw2WmWk8c8bXl9a3KszP8AKQq25UkdSwr7p/bn/Yl8J/t+/sx+JPhd4ykvLfSPECxyR3lkEF1p1zFIssNxEXVl3JIinBUhhuBGGNBd0fIX/Brf4P8AC2g/8ElvDOqaLDaDXtd1zWZvEdwkKpNPcx6hPFEJTgM221S3C7uikdM4r9FzLndn8sV+HHgb/g3v/bS/Yo1vXLb9n/8AaE0DTdC1iYSTZv7vR/teDhZJLUQ3MIl2KqlwQSAANoAA7yX/AIIcftyftB2Gn2vxW/bQ1bTdLUMt3aaJeahOzqSMowhezSUMB1k3BfQ0CufG/wDwUhdF/wCDnrSmDRqq/FXwNufICribSgcnoB27dOa/pXWbfIV2kdD+f+f88Z/Ez49f8Gg7Rabp+pfC344603iSNmm1CTxbZKxuZy+9Zbe4tBHJAwOD84lYsM71r9Gv+CUvwK+OnwA/ZvvNH/aE+IEXxG8bTa9cXdpfx3TXS2tgYoEitxK0UTtho5ZCWUnMpG4gCgJH09TX6U6mv0oJG06Om06OgB1FFFABQw3CiigBuduabTnHem0AOQZNOY4FIgwKRzQA2iiigCSiiigBj/epV6Gkf71Kv3WoA+ZP+C0H/KJ39or/ALEHVv8A0mev5IB1/D+tf1u/8Fn2/wCNTv7RHH/Mg6t/6TPX8kSDLfh/Wg1htzB/nigfMo+u0jOP1/H/ADxkchVJJwqgknpj/wCsfX9K+xv2G/2HTANN8c+MLRt3+v0vSp0xtJHyzzKc5IHKoR6E8ACtKVNzlZHh8QZ9hsrw/wBZxG/Rf8AP2Hv2INkNj438aWbLJv8AO0rSpk4xj5Z5lPfqVQgYxk46V9iM+5ApLNzkksTu6dfxGf8A63FNx/vN9Tz/AJ/nQAT069s19FRw8aS93c/l3iHiHFZtiXiKzsui7ATgVc0fR5dYvVhjyMYLtjIQf57UaPo02sXQjj+XkbmxkIPX/wCtXd6TpcWj2iwxDgDknqx9TXZSp8258tiMVyLlQmkaRDo1msMK+7MeWc+9WqKK6VFLY8dtyd5MR13qR6jFd7+zt+0Bq37OfjyPWdOVbq3mHl39kzFUvI85x6Kw6q2Dg/VgeDoAzUVKcZx5ZbHVl+Oq4HERxOGk4yjqn1P14+EnxV0v4v8AgjT9e0abzrK/i3AHHmQt/FG4/hdTkEdiDXUBt61+Y/7FH7Tcv7O/xBjhvWP/AAi+sukeoISSttJ0W4UdscB/9nH90V+mFrfR3trDcW7LLDOFZHQ7lYHnIPp796+Tx2EdCfkz+vuC+KYZ1go1FpUjZSXn3+ZYWDaep5OT7mlSAR42/LjsKfRXGfZARkU3ys5/2uvHWnUUANMXJwSCeaRYQv8AjT6KAIltti7Rj246U8x5/HrxTqKAGGDJ6988804A+v6UtFAAeaZ5XGNx65p9FAEZg5HO3BzwKBAAuPXqRUlFAES25HVgec4xSiH95uJz3+lSUUAFDDcuPXiiigBojwfxzTjRRQA3yuf731oEefvYPOenSnUUANMf69cjrQIsNnv9Pwp1FABTX6U6myHC0ANpyHBpoORQOtAElFFDHAoAKKAcikLYagAYZFMHJqQ8imhMGgBw4FNkp1I44oAZRRRQBJSZpaCM0ARk5NOxhaPLpT938KAPmL/gs8uf+CTv7RP/AGIOq/8ApM9fyQKfm6/wk8dh1z/n1HqK/rf/AOCzrZ/4JQftEZBGfAOq8g/9O74r+eX9h79h9hNZ+NvGlnt+dbjSdJnXqcAieZTyGB+ZUI46sBwo0pU5VH7p4+eZ5hsqwkq+IevRB+w3+xFths/G3jSzeObcJtK0mdPujA2TzA9+pVCOMZP90/YjcqBluDnk9f8AP+eOKCzMeTn1zzn/AD+tFfQYfDxpLTc/l/iDiDE5tiXXxEtOivogPSrej6PJrd4sMe7b/G2PuDvRpGiza1ciOMY/vt1CDuf/AK1d5pOmR6RarHGvb5mxyxrspwbPlMTiklyiaRpMOi2YhhX/AHmPVjVqiiuxRS2PJfvO8mFFFFBF0FHWiiiwaAPm6kfMckkZ/HH4V98/8Ezv2iD488BSeDdUn8zVPDKKLMs3zT2fAXBzz5Zwv+7s7k18DV2n7OvxXk+B/wAaNB8R+cyWtncCO9zlt1s52y8Z5IUkj/aArjx2GVWk+6PtuBOInlWaQm3anJpSXe/X5H64KdwoqpY363drDNGVkjmUMrKcgg1ZD5NfH7H9iRkpK8fUdRRRQUFFFFABRRRQAUUUUAFFFFABRRRQAUUUUAFFFFABRRRQAUUUUAFFFFABTZfuU6mycrQAxPu0oODQBgUUASA5FNfpSocikfpQAqHIpD9+hDg0pXLZoAUnApvmU49KjC0ASA5FFA4FFABRRRQAUUUUAFFFFAGH8SPhrofxd8B6t4Z8SafHqmg65bNaX1pI7KtxEwwyEqQ2D7EV48f+CX/wLbr4HznrnWdQ/wDj/wCNe+0Vcak4/C2jgxmV4LF2+t0YVLfzRUvzTPAv+HX/AMC/+hH/APKzqH/x+gf8Ev8A4Fj/AJkf/wArOof/AB+vfaKv6xV/mf3s4v8AVnJ/+gSl/wCC4f5Hh2n/APBN34LaVAY7fwWI0Y5I/ta+OfxM2asf8O8vg9/0J/8A5Vb3/wCPV7TRVfWqy2m/vZL4VyR6vB0v/BcP8jxb/h3l8Hv+hP8A/Kre/wDx6j/h3l8Hv+hP/wDKre//AB6vaaKPrVf+d/eyf9U8k/6A6X/guH+R4t/w7y+D3/Qn/wDlVvf/AI9R/wAO8vg9/wBCf/5Vb3/49XtNFH1qv/O/vYf6p5H/ANAdL/wXD/5E8W/4d5fB7/oT/wDyq3v/AMeo/wCHeXwe/wChP/8AKre//Hq9poo+tV/5397D/VPI/wDoDpf+C4f/ACJ4t/w7y+D3/Qn/APlVvf8A49SN/wAE8Pg6w58H/wDlVvf/AI9XtVFH1qt/O/vZS4VyRarB0v8AwXD/ACM3wr4S0/wT4cstJ02FoNP06Fbe3jaV5TGijAG5yWPA6kk1ohQKWiue93dnuQpxhFRirJbJBRRRQUFFFFABRRRQAUUUUAFFFFABRRRQAUUUUAFFFFABRRRQAUUUUAFFFFABQRmiigBNgo2ClooAAMUEZoooATaKWiigAooooAKKKKACiiigAooooAKKKKACiiigAooooAKKKKACiiigAooooAKKKKACiiigAooooAKKKKACiiigAooooAKKKKACiiigAooooAKKKKACiiigAooooAKKKKACiiigAooooAKKKKACiiigAooooAKKKKACiiigAooooA//2Q==" vertex="1" parent="WIyWlLk6GJQsqaUBKTNV-1">
          <mxGeometry x="140" y="550" width="171.71" height="100" as="geometry" />
        </mxCell>
        <mxCell id="a3HnjsQAZOwYdQYxMBOG-38" value="TODO-APP" style="rhombus;whiteSpace=wrap;html=1;" vertex="1" parent="WIyWlLk6GJQsqaUBKTNV-1">
          <mxGeometry x="412.5" y="570" width="80" height="80" as="geometry" />
        </mxCell>
        <mxCell id="a3HnjsQAZOwYdQYxMBOG-43" value="" style="shape=image;verticalLabelPosition=bottom;verticalAlign=top;imageAspect=0;image=https://www.mytinydc.com/images/blog/blog-prometheus+grafana.png" vertex="1" parent="WIyWlLk6GJQsqaUBKTNV-1">
          <mxGeometry x="540" y="550" width="210" height="100" as="geometry" />
        </mxCell>
      </root>
    </mxGraphModel>
  </diagram>
</mxfile>
